PathFileType	4	(X/Y/Z)	s07c0101.trc
DataRate	CameraRate	NumFrames	NumMarkers	Units	OrigDataRate	OrigDataStartFrame	OrigNumFrames
200	200	4	48	mm	200	1750	2000
Frame#	Time	racr			lacr			c7			jug			rlel			rdr			llel			ldr			s2			lic			ric			lasi			rasi			rpsi			lpsi			rgt			lgt			rth1			rth2			rth3			rth4			rlfc			rmfc			rsh1			rsh2			rsh3			rsh4			rlmal			rcal			rtoe			rmt5			lth1			lth2			lth4			lth3			llfc			lmfc			lsh1			lsh2			lsh3			lsh4			llmal			lcal			ltoe			lmt5			SBIKE			LBIKE			RBIKE			
		X1	Y1	Z1	X2	Y2	Z2	X3	Y3	Z3	X4	Y4	Z4	X5	Y5	Z5	X6	Y6	Z6	X7	Y7	Z7	X8	Y8	Z8	X9	Y9	Z9	X10	Y10	Z10	X11	Y11	Z11	X12	Y12	Z12	X13	Y13	Z13	X14	Y14	Z14	X15	Y15	Z15	X16	Y16	Z16	X17	Y17	Z17	X18	Y18	Z18	X19	Y19	Z19	X20	Y20	Z20	X21	Y21	Z21	X22	Y22	Z22	X23	Y23	Z23	X24	Y24	Z24	X25	Y25	Z25	X26	Y26	Z26	X27	Y27	Z27	X28	Y28	Z28	X29	Y29	Z29	X30	Y30	Z30	X31	Y31	Z31	X32	Y32	Z32	X33	Y33	Z33	X34	Y34	Z34	X35	Y35	Z35	X36	Y36	Z36	X37	Y37	Z37	X38	Y38	Z38	X39	Y39	Z39	X40	Y40	Z40	X41	Y41	Z41	X42	Y42	Z42	X43	Y43	Z43	X44	Y44	Z44	X45	Y45	Z45	X46	Y46	Z46	X47	Y47	Z47	X48	Y48	Z48	
1750	8.7500	430.539309	1453.745691	-74.339396	444.391959	1444.617359	-343.281564	391.568248	1504.256839	-212.759564	362.451278	1366.173729	-215.398159	534.670724	1133.618996	-5.428710	722.084227	909.343717	-75.471524	538.964445	1136.156496	-455.413760	721.654521	898.357689	-411.369801	-157.763528	1216.268730	-243.072740	2.103339	1276.832523	-387.158359	5.368271	1266.142776	-93.769160	34.554996	1200.401758	-363.584994	27.500281	1215.914206	-114.220757	-130.764665	1257.175333	-192.866830	-120.423362	1267.512324	-301.292182	-32.287634	1144.488142	-49.603265	-50.150861	1113.907615	-416.045342	105.073093	1089.406993	-56.553235	191.079741	1078.371191	-71.600701	261.026449	1029.578499	-75.570429	201.562353	1110.192094	-88.463628	382.359752	949.141278	-116.453461	369.325631	930.339909	-221.613866	342.150079	814.408049	-86.536389	334.100256	726.294269	-99.334511	287.070955	653.604572	-89.583783	347.753324	723.073127	-137.272731	235.904948	523.927414	-80.072646	161.775421	495.702276	-107.084914	440.048393	416.441109	-133.611512	361.437397	400.592467	-59.213149	19.735387	1007.010162	-425.758977	91.915649	956.415053	-427.868155	119.660467	979.639460	-420.753888	129.954699	875.962419	-420.097583	228.750836	731.130841	-383.878056	217.414325	715.834920	-286.930063	143.080493	610.218730	-406.256412	114.385972	530.866793	-388.390983	47.562882	470.854338	-396.228317	119.490574	531.097947	-346.691620	-35.382560	366.381279	-395.729295	-111.371725	360.030921	-363.047765	139.727609	215.871108	-356.144258	56.881568	228.433363	-419.922301	-264.209355	977.925693	-236.618547	-82.244381	79.126423	-435.049004	-82.694345	79.141279	-37.610930	
1751	8.7550	430.093716	1453.402640	-74.802946	444.058055	1444.343130	-343.868886	391.223621	1503.931508	-213.318071	362.131490	1365.839972	-215.884303	534.647153	1133.481729	-5.689082	722.110704	909.283353	-75.538157	538.690004	1135.847351	-455.432118	721.641395	898.279457	-411.253169	-157.916254	1215.284425	-243.041554	1.699639	1276.290902	-387.145763	5.396054	1265.037186	-93.684219	34.324430	1200.062405	-363.596827	27.635524	1214.779024	-114.031935	-130.890143	1255.898002	-193.035136	-120.686909	1266.607771	-301.220671	-32.459952	1142.165209	-50.202452	-49.798989	1113.454485	-416.312297	104.190727	1084.026601	-56.337239	189.923962	1071.304179	-71.467001	258.916728	1021.058981	-75.290521	201.332908	1103.290879	-87.527898	379.288134	939.558779	-116.427261	366.412399	921.524350	-223.092267	340.425372	803.894957	-86.436499	333.204848	715.949523	-99.275897	287.921360	642.666495	-89.271593	347.628626	713.144625	-136.737186	238.380685	512.338171	-79.885868	164.752111	483.186132	-106.848787	444.340316	408.835684	-133.846471	365.923336	391.385750	-59.185019	21.662764	1008.032109	-425.440525	94.755377	958.790563	-427.102893	122.051849	982.393620	-419.929311	134.435051	879.030907	-419.703310	235.376505	735.390305	-384.658976	223.961273	720.707521	-287.265065	147.433624	615.830784	-406.469032	116.893203	537.208734	-388.455453	48.814870	478.383590	-396.120709	121.682147	537.356235	-346.729200	-36.544955	376.758533	-395.572218	-112.580134	372.442068	-362.973661	135.206232	222.571998	-356.169185	52.570433	237.072469	-420.079069	-264.226675	977.875166	-236.714448	-82.532343	78.909944	-434.884962	-82.701644	79.144685	-37.615965	
1752	8.7600	429.675705	1453.058221	-75.269055	443.737381	1444.093159	-344.616982	390.906915	1503.558490	-213.799700	361.791235	1365.412107	-216.406008	534.524951	1133.369491	-5.936820	722.107162	909.216959	-75.591457	538.430821	1135.330694	-455.340713	721.606244	898.228593	-411.140274	-158.045492	1214.160681	-243.086470	1.316981	1275.647481	-387.071986	5.325050	1264.009884	-93.292540	34.132816	1199.610097	-363.564173	27.775170	1213.557114	-113.703533	-130.929105	1254.456409	-193.392818	-120.973638	1265.591089	-301.095435	-32.653590	1139.560541	-50.813467	-49.399127	1113.008658	-416.569319	103.272565	1078.709313	-56.327870	188.814919	1064.141194	-70.827108	256.540106	1012.340696	-75.129371	201.036100	1096.059866	-86.721938	375.960086	929.539042	-116.162974	363.189247	911.265244	-220.852662	338.600346	793.643743	-85.460762	332.229425	705.051520	-98.718018	288.228314	631.205169	-88.922553	346.783183	702.715271	-136.383158	240.319187	500.637421	-79.910570	167.126953	470.399711	-106.589678	448.057379	400.891141	-133.885142	369.940317	381.777313	-59.337225	23.687516	1009.053367	-425.057205	97.697710	961.105479	-426.324156	124.683420	985.503959	-419.367274	138.828316	882.094685	-419.624926	242.120379	740.078526	-385.580685	231.945195	724.398849	-289.138197	152.045109	621.713154	-406.785488	119.864050	543.731021	-388.545387	50.542956	486.479889	-396.137237	123.871003	544.413422	-346.620471	-37.016743	387.569402	-395.449371	-113.063460	385.171106	-362.891526	131.213061	229.506731	-356.154497	48.839690	246.015390	-420.155881	-264.228934	977.846088	-236.819866	-82.527686	78.891681	-434.884053	-82.714271	79.132567	-37.621494	
1753	8.7650	429.334682	1452.746734	-75.798446	443.216833	1443.744060	-345.341570	390.477806	1502.764824	-214.026385	361.512500	1364.912183	-217.004138	534.424036	1133.281169	-6.173397	722.072289	909.121795	-75.616699	537.958246	1134.906710	-455.440977	721.570456	898.228609	-411.108401	-158.201654	1212.961853	-243.035643	0.993691	1274.862619	-387.042770	5.298943	1262.685136	-92.981644	33.949068	1199.100030	-363.521408	27.918009	1212.138225	-113.322496	-130.846209	1252.595476	-194.237817	-121.280033	1264.396470	-300.929779	-32.899385	1136.840594	-51.453053	-48.945309	1112.381566	-416.849543	102.279891	1073.150531	-56.443473	187.628586	1056.686297	-70.542674	254.074585	1003.402901	-74.771022	200.660590	1088.392543	-85.943194	372.247089	919.091526	-115.745684	359.776451	900.872183	-220.010275	336.023189	782.578688	-84.757371	330.848202	693.922808	-98.347471	287.966542	619.473782	-88.607922	345.369439	691.824718	-135.951992	241.799464	488.648836	-79.807515	169.206751	457.028545	-106.548409	451.002629	392.717388	-133.841352	373.244451	371.992274	-59.255954	25.795290	1010.075533	-424.644382	100.714319	963.327848	-425.571402	127.054128	987.851578	-418.099137	143.298004	885.292939	-419.557111	249.031434	745.142088	-386.523016	239.112915	729.299179	-289.719568	157.095611	628.041871	-407.132504	123.266266	550.810759	-388.772893	52.722912	494.928678	-396.076984	127.381551	551.221645	-346.826845	-36.828311	398.583519	-395.278017	-112.789927	398.109406	-362.784923	127.753938	236.633150	-356.086427	45.804627	255.172866	-420.155368	-264.260586	977.798689	-236.890101	-82.532329	78.867089	-434.890330	-82.686228	79.121645	-37.621183	
